<svg width="1440" height="1440" viewBox="0 0 1440 1440" fill="none" xmlns="http://www.w3.org/2000/svg">
    <defs>
        <linearGradient id="prismSweep" x1="320" y1="240" x2="1120" y2="1200" gradientUnits="userSpaceOnUse">
            <stop offset="0" stop-color="#2BF2C9" stop-opacity="0.5" />
            <stop offset="0.36" stop-color="#00E0FF" stop-opacity="0.3" />
            <stop offset="0.68" stop-color="#6B4DFF" stop-opacity="0.45" />
            <stop offset="1" stop-color="#FF7AF5" stop-opacity="0.35" />
        </linearGradient>
        <radialGradient id="prismGlow" cx="0" cy="0" r="1" gradientUnits="userSpaceOnUse"
            gradientTransform="translate(620 640) rotate(32) scale(540 420)">
            <stop offset="0" stop-color="#E0F7FF" stop-opacity="0.7" />
            <stop offset="0.52" stop-color="#6B4DFF" stop-opacity="0.18" />
            <stop offset="1" stop-color="#0C0B24" stop-opacity="0" />
        </radialGradient>
        <linearGradient id="beam" x1="280" y1="980" x2="960" y2="420" gradientUnits="userSpaceOnUse">
            <stop offset="0" stop-color="#FFFFFF" stop-opacity="0.45" />
            <stop offset="1" stop-color="#6B4DFF" stop-opacity="0" />
        </linearGradient>
        <filter id="fieldBlur" x="-120" y="-120" width="1680" height="1680" filterUnits="userSpaceOnUse"
            color-interpolation-filters="sRGB">
            <feGaussianBlur stdDeviation="70" />
        </filter>
    </defs>
    <g filter="url(#fieldBlur)" opacity="0.85">
        <path d="M220 980C188 732 356 436 604 316C852 196 1148 248 1236 452C1324 656 1188 1004 940 1124C692 1244 252 1228 220 980Z"
            fill="url(#prismGlow)" />
    </g>
    <path d="M284 1004C260 796 404 540 632 432C860 324 1132 356 1216 552C1300 748 1176 1048 948 1156C720 1264 308 1212 284 1004Z"
        stroke="url(#prismSweep)" stroke-width="72" stroke-linecap="round" stroke-linejoin="round" opacity="0.4" />
    <path d="M360 1052C396 868 604 684 816 660C1028 636 1204 768 1168 952" fill="url(#beam)" opacity="0.35" />
    <circle cx="412" cy="804" r="28" fill="#2BF2C9" fill-opacity="0.5" />
    <circle cx="1084" cy="980" r="36" fill="#FF7AF5" fill-opacity="0.36" />
    <circle cx="912" cy="520" r="24" fill="#00E0FF" fill-opacity="0.4" />
</svg>