<svg width="512" height="512" viewBox="0 0 512 512" fill="none" xmlns="http://www.w3.org/2000/svg">
    <rect width="512" height="512" rx="120" fill="#070515"/>
    <defs>
        <linearGradient id="paint0_linear" x1="64" y1="80" x2="448" y2="448" gradientUnits="userSpaceOnUse">
            <stop stop-color="#7C5CFF"/>
            <stop offset="0.5" stop-color="#00E0FF"/>
            <stop offset="1" stop-color="#0B0B1E"/>
        </linearGradient>
        <linearGradient id="paint1_linear" x1="160" y1="120" x2="360" y2="392" gradientUnits="userSpaceOnUse">
            <stop stop-color="#FFFFFF" stop-opacity="0.95"/>
            <stop offset="1" stop-color="#7C5CFF" stop-opacity="0.4"/>
        </linearGradient>
    </defs>
    <path d="M148 144C148 129.641 159.641 118 174 118H338C352.359 118 364 129.641 364 144V188C364 202.359 352.359 214 338 214H246C231.641 214 220 225.641 220 240V260C220 274.359 231.641 286 246 286H318C332.359 286 344 297.641 344 312V368C344 382.359 332.359 394 318 394H174C159.641 394 148 382.359 148 368V144Z" fill="url(#paint0_linear)"/>
    <path d="M188 164H324V184H260C239.013 184 222 201.013 222 222V302C222 323.539 239.461 342 261 342H324V362H188V164Z" fill="url(#paint1_linear)"/>
    <circle cx="374" cy="138" r="26" fill="#00E0FF" fill-opacity="0.75"/>
    <circle cx="138" cy="374" r="20" fill="#7C5CFF" fill-opacity="0.9"/>
    <path d="M256 118L308 214H204L256 118Z" fill="#15122B" opacity="0.7"/>
    <text x="50%" y="82%" dominant-baseline="middle" text-anchor="middle" font-family="'Orbitron', sans-serif" font-weight="600" font-size="48" fill="#F4F6FF" opacity="0.9">OBSDIV</text>
</svg>